<svg xmlns="http://www.w3.org/2000/svg" width="1024" height="1024" viewBox="0 0 1024 1024" role="img" aria-label="KanataBar">
  <defs>
    <linearGradient id="bg" x1="0" y1="0" x2="0" y2="1024" gradientUnits="userSpaceOnUse">
      <stop offset="0" stop-color="#40404a"></stop>
      <stop offset="0.55" stop-color="#2a2a31"></stop>
      <stop offset="1" stop-color="#1a1a1f"></stop>
    </linearGradient>
    <radialGradient id="bgsheen" cx="512" cy="150" r="620" gradientUnits="userSpaceOnUse">
      <stop offset="0" stop-color="#ffffff" stop-opacity="0.10"></stop>
      <stop offset="1" stop-color="#ffffff" stop-opacity="0"></stop>
    </radialGradient>
    <linearGradient id="key" x1="0" y1="200" x2="0" y2="780" gradientUnits="userSpaceOnUse">
      <stop offset="0" stop-color="#FDBB4E"></stop>
      <stop offset="0.5" stop-color="#F49E22"></stop>
      <stop offset="1" stop-color="#E17E12"></stop>
    </linearGradient>
    <linearGradient id="keysheen" x1="0" y1="200" x2="0" y2="500" gradientUnits="userSpaceOnUse">
      <stop offset="0" stop-color="#ffffff" stop-opacity="0.42"></stop>
      <stop offset="1" stop-color="#ffffff" stop-opacity="0"></stop>
    </linearGradient>
    <linearGradient id="keybase" x1="0" y1="560" x2="0" y2="770" gradientUnits="userSpaceOnUse">
      <stop offset="0" stop-color="#000000" stop-opacity="0"></stop>
      <stop offset="1" stop-color="#000000" stop-opacity="0.22"></stop>
    </linearGradient>
    <clipPath id="keyclip"><rect x="232" y="206" width="560" height="560" rx="150"></rect></clipPath>
    <filter id="shadow" x="-20%" y="-20%" width="140%" height="140%">
      <feGaussianBlur stdDev="26"></feGaussianBlur>
    </filter>
  </defs>
  <rect x="0" y="0" width="1024" height="1024" rx="229" fill="url(#bg)"></rect>
  <rect x="0" y="0" width="1024" height="1024" rx="229" fill="url(#bgsheen)"></rect>
  
  <rect x="232" y="230" width="560" height="560" rx="150" fill="#000000" opacity="0.4" filter="url(#shadow)"></rect>
  
  <rect x="232" y="206" width="560" height="560" rx="150" fill="url(#key)"></rect>
  <g clip-path="url(#keyclip)">
    <rect x="232" y="206" width="560" height="560" fill="url(#keybase)"></rect>
    <rect x="232" y="206" width="560" height="330" fill="url(#keysheen)"></rect>
  </g>
  
  <rect x="234.5" y="208.5" width="555" height="555" rx="147.5" fill="none" stroke="#ffffff" stroke-opacity="0.35" stroke-width="3"></rect>
  
  <path d="M392 550 L512 402 L632 550" fill="none" stroke="#ffffff" stroke-opacity="0.18" stroke-width="74" stroke-linecap="round" stroke-linejoin="round" transform="translate(0 9)"></path>
  <path d="M392 550 L512 402 L632 550" fill="none" stroke="#2a2118" stroke-opacity="0.92" stroke-width="74" stroke-linecap="round" stroke-linejoin="round"></path>
</svg>